<svg id="svg" version="1.1" xmlns="http://www.w3.org/2000/svg" xmlns:xlink="http://www.w3.org/1999/xlink" width="400" height="441.37931034482756" viewBox="0, 0, 400,441.37931034482756"><g id="svgg"><path id="path0" d="M235.488 3.521 C 235.407 3.653,235.391 5.119,235.454 6.777 C 235.518 8.438,235.451 9.979,235.306 10.207 C 235.064 10.588,234.957 9.275,234.908 5.310 C 234.902 4.817,234.832 4.414,234.753 4.414 C 234.540 4.414,233.373 8.317,233.377 9.018 C 233.378 9.351,233.248 9.704,233.088 9.803 C 232.893 9.923,232.816 9.380,232.856 8.152 C 232.951 5.220,231.381 4.719,231.025 7.568 C 230.848 8.980,229.912 10.207,229.010 10.207 C 228.871 10.207,228.613 10.381,228.436 10.594 C 228.099 11.000,226.483 10.463,226.483 9.945 C 226.483 9.559,227.296 9.029,227.936 8.997 C 229.205 8.933,228.798 7.188,227.511 7.177 C 226.343 7.167,222.165 12.393,221.615 14.552 C 221.420 15.321,221.060 15.352,220.828 14.621 C 220.569 13.807,220.931 12.893,221.435 13.087 C 221.735 13.202,221.806 13.122,221.686 12.808 C 221.593 12.566,221.517 12.317,221.517 12.253 C 221.517 11.954,220.540 12.188,220.091 12.594 C 219.619 13.022,219.586 13.017,219.589 12.526 C 219.594 11.530,220.910 9.171,221.902 8.380 C 223.535 7.077,223.079 6.367,221.305 7.449 C 220.302 8.060,218.884 10.111,218.614 11.340 C 218.348 12.551,216.695 12.043,216.502 10.690 C 216.453 10.352,216.203 10.034,215.945 9.985 C 215.536 9.907,215.513 10.013,215.760 10.810 C 216.130 12.001,216.165 17.049,215.806 17.407 C 215.620 17.594,215.158 17.113,214.402 15.946 C 213.783 14.989,213.020 13.879,212.706 13.479 L 212.136 12.750 213.246 12.306 C 213.857 12.062,214.540 11.862,214.764 11.862 C 214.989 11.862,215.172 11.676,215.172 11.448 C 215.172 10.870,213.919 10.927,212.505 11.569 L 211.355 12.091 210.241 11.271 C 208.312 9.853,206.069 10.124,206.069 11.776 C 206.069 12.323,206.563 12.210,206.897 11.586 C 207.329 10.778,208.386 10.906,209.523 11.904 L 210.513 12.773 209.534 13.776 C 208.995 14.328,208.130 15.573,207.612 16.543 L 206.669 18.308 206.358 17.085 C 205.742 14.665,204.902 12.690,204.489 12.690 C 204.207 12.690,204.141 12.841,204.276 13.172 C 204.769 14.385,205.294 16.036,205.203 16.092 C 204.475 16.545,203.034 17.031,203.034 16.823 C 203.034 15.852,202.217 16.730,202.067 17.862 C 201.457 22.462,200.538 26.263,200.120 25.916 C 199.916 25.747,199.618 25.688,199.458 25.787 C 199.129 25.990,199.125 25.980,198.507 23.167 C 197.389 18.077,194.988 15.246,193.090 16.783 C 192.209 17.496,192.625 18.077,193.572 17.456 C 194.821 16.637,196.632 19.496,197.373 23.455 C 197.551 24.406,197.531 24.434,196.433 24.727 L 195.311 25.027 194.759 23.173 C 194.455 22.154,194.207 21.178,194.207 21.005 C 194.207 20.533,192.631 20.625,191.841 21.143 C 191.284 21.508,191.016 21.535,190.458 21.281 C 190.078 21.107,189.587 20.966,189.366 20.966 C 188.543 20.966,189.016 21.422,190.636 22.192 C 194.668 24.106,195.377 26.081,193.296 29.592 C 192.466 30.992,191.494 32.697,191.135 33.379 L 190.483 34.621 190.400 33.187 C 190.336 32.074,190.513 31.283,191.190 29.655 C 192.210 27.205,192.097 26.704,190.936 28.534 C 190.047 29.936,189.959 29.918,189.674 28.276 C 189.329 26.290,188.397 23.448,188.090 23.448 C 187.901 23.448,187.851 23.781,187.955 24.345 C 188.046 24.838,188.306 26.234,188.533 27.448 C 189.118 30.573,189.068 31.932,188.298 33.815 C 187.605 35.512,187.034 35.275,187.034 33.289 C 187.034 32.928,186.786 32.573,186.421 32.410 C 186.001 32.224,185.577 31.514,185.083 30.169 C 184.226 27.836,182.590 24.771,182.118 24.614 C 181.934 24.553,182.205 25.352,182.720 26.389 C 183.675 28.315,184.410 30.303,184.232 30.481 C 183.962 30.751,181.592 29.855,181.158 29.318 C 180.515 28.523,178.803 28.017,177.554 28.251 C 175.970 28.548,176.082 28.966,177.746 28.966 C 178.805 28.966,179.438 29.118,179.888 29.483 L 180.527 30.000 179.367 30.592 C 178.729 30.917,178.207 31.305,178.207 31.454 C 178.207 31.833,178.347 31.799,179.373 31.173 C 180.831 30.284,181.170 30.429,181.671 32.151 C 182.145 33.783,181.155 37.793,180.277 37.793 C 180.075 37.793,179.986 38.043,180.057 38.415 C 180.204 39.181,179.680 40.642,179.334 40.429 C 179.195 40.343,178.811 40.709,178.481 41.244 L 177.881 42.215 177.184 40.817 C 176.505 39.454,176.495 39.348,176.781 36.626 C 177.167 32.958,176.916 32.525,175.535 34.477 C 175.108 35.081,174.595 35.577,174.396 35.580 C 174.196 35.584,173.562 36.605,172.987 37.850 L 171.942 40.115 171.748 38.820 C 171.537 37.411,172.114 36.273,174.275 33.838 C 174.792 33.255,175.154 32.718,175.080 32.643 C 174.835 32.398,173.674 33.330,172.554 34.671 L 171.452 35.990 171.255 35.167 C 171.070 34.393,171.064 34.402,171.147 35.309 C 171.214 36.047,171.011 36.594,170.278 37.653 L 169.322 39.034 169.471 38.069 C 169.553 37.538,169.705 36.700,169.810 36.207 C 170.080 34.931,169.478 35.051,169.114 36.345 C 168.954 36.914,168.624 38.434,168.381 39.724 C 167.649 43.607,167.406 44.414,166.973 44.414 C 166.751 44.414,166.254 44.662,165.868 44.966 C 164.914 45.717,164.890 45.706,163.903 44.120 C 162.787 42.324,162.897 41.942,166.067 36.552 C 167.550 34.031,166.863 34.050,165.308 36.573 C 164.740 37.494,163.672 38.794,162.935 39.463 L 161.594 40.678 160.947 39.867 C 160.071 38.769,159.831 39.139,160.530 40.510 C 160.976 41.384,160.907 42.561,160.449 41.890 C 160.413 41.837,159.593 40.397,158.627 38.690 C 157.035 35.875,156.414 35.083,156.414 35.866 C 156.414 36.020,156.805 36.839,157.283 37.686 C 158.188 39.290,158.087 39.821,156.934 39.520 C 156.646 39.445,156.254 39.513,156.062 39.673 C 155.799 39.891,155.329 39.474,154.151 37.981 C 152.310 35.646,150.621 33.955,150.621 34.448 C 150.621 34.640,151.407 35.812,152.368 37.054 C 153.329 38.295,154.211 39.475,154.328 39.676 C 154.812 40.506,153.487 39.350,152.612 38.178 C 152.114 37.511,151.541 36.966,151.339 36.966 C 150.847 36.966,148.138 34.279,148.138 33.792 C 148.138 33.580,148.355 33.280,148.621 33.126 C 149.025 32.890,148.967 32.843,148.262 32.836 C 147.799 32.831,147.270 32.978,147.086 33.162 C 146.824 33.424,146.567 33.273,145.899 32.462 C 144.656 30.954,143.951 31.525,144.984 33.204 C 145.697 34.363,147.034 37.160,147.034 37.492 C 147.034 37.817,145.276 38.723,145.183 38.446 C 145.134 38.299,144.655 37.440,144.118 36.537 C 141.572 32.258,139.214 31.008,141.482 35.140 C 142.108 36.281,142.621 37.345,142.621 37.504 C 142.621 38.167,141.887 37.712,141.302 36.688 C 140.116 34.611,139.868 35.584,140.847 38.474 C 141.135 39.323,141.143 39.616,140.885 39.780 C 140.380 40.101,140.138 40.043,140.138 39.600 C 140.138 39.381,139.828 38.866,139.448 38.457 C 139.069 38.047,138.759 37.552,138.759 37.355 C 138.759 36.735,138.193 36.617,137.636 37.121 C 137.020 37.678,136.995 37.663,136.636 36.552 C 136.300 35.514,135.532 35.319,135.201 36.186 L 134.956 36.828 134.758 36.069 C 134.539 35.225,133.796 35.056,133.241 35.724 C 132.801 36.254,132.242 36.254,132.038 35.724 C 131.804 35.115,131.440 35.219,131.086 35.997 C 130.831 36.557,130.869 36.849,131.291 37.583 C 132.372 39.461,132.839 47.050,131.910 47.630 C 131.440 47.923,131.383 47.752,131.078 45.155 C 130.781 42.622,130.456 41.590,130.076 41.970 C 129.999 42.047,130.073 43.504,130.240 45.209 C 130.569 48.560,130.589 48.489,129.034 49.394 C 128.628 49.630,128.552 49.564,128.552 48.975 C 128.552 48.591,128.425 48.276,128.270 48.276 C 128.115 48.276,127.841 47.934,127.661 47.517 C 127.400 46.912,126.052 44.706,125.610 44.161 C 125.171 43.619,125.318 44.574,125.772 45.212 C 127.995 48.334,128.019 52.848,125.797 49.881 C 123.821 47.244,122.327 46.335,121.434 47.228 C 120.776 47.886,121.050 48.441,122.033 48.441 C 123.242 48.441,124.132 49.048,124.878 50.381 L 125.480 51.457 124.384 52.088 L 123.287 52.719 123.478 51.284 C 123.685 49.726,123.569 49.684,122.277 50.847 C 121.936 51.153,121.613 51.352,121.559 51.288 C 121.504 51.225,121.008 50.457,120.456 49.583 C 119.415 47.936,118.099 46.899,117.047 46.898 C 116.300 46.896,115.034 47.450,115.034 47.778 C 115.034 47.911,115.275 47.891,115.568 47.734 C 117.011 46.962,118.342 47.902,119.838 50.750 C 121.255 53.447,120.865 54.240,119.250 51.945 C 118.630 51.065,117.822 50.064,117.454 49.720 L 116.784 49.096 116.751 50.528 C 116.733 51.316,116.879 52.724,117.075 53.659 L 117.431 55.357 116.302 55.955 C 114.955 56.668,114.759 56.689,114.759 56.115 C 114.759 55.875,114.603 55.730,114.414 55.794 C 113.907 55.965,113.398 55.160,113.388 54.172 C 113.355 50.935,112.418 50.706,111.198 53.636 C 110.729 54.763,110.345 55.819,110.345 55.981 C 110.345 56.637,109.869 56.206,109.300 55.034 C 108.213 52.797,107.785 53.220,107.077 57.228 L 106.608 59.886 105.787 59.029 C 105.332 58.554,104.719 57.410,104.414 56.465 C 103.827 54.651,103.296 54.323,103.333 55.799 C 103.358 56.820,103.917 60.141,104.188 60.882 C 104.361 61.357,104.344 61.357,103.818 60.897 C 103.086 60.255,102.808 60.285,103.172 60.966 C 103.407 61.403,103.382 61.517,103.055 61.517 C 102.559 61.517,102.299 61.231,101.232 59.509 C 100.282 57.976,99.663 57.628,99.145 58.336 C 98.810 58.793,98.737 58.754,98.192 57.829 C 97.842 57.236,97.387 56.828,97.076 56.828 C 96.448 56.828,96.446 56.872,96.969 58.596 C 97.887 61.622,96.885 61.533,95.172 58.436 C 94.490 57.201,93.736 56.139,93.498 56.076 C 93.260 56.013,92.684 55.190,92.219 54.246 C 90.809 51.387,89.424 50.078,88.994 51.198 C 88.881 51.493,89.011 51.686,89.389 51.785 C 90.203 51.997,92.261 57.072,91.744 57.590 C 91.657 57.676,91.586 57.614,91.586 57.452 C 91.586 56.515,84.308 46.483,83.839 46.773 C 83.531 46.963,83.663 47.214,84.845 48.690 C 87.628 52.161,91.993 60.141,91.106 60.134 C 90.807 60.132,90.317 59.575,89.831 58.686 C 88.660 56.545,86.257 53.251,85.862 53.246 C 85.419 53.240,85.428 53.698,85.927 56.533 C 86.450 59.501,86.507 59.507,84.213 56.344 C 81.524 52.635,80.016 50.969,79.521 51.159 C 79.296 51.246,78.283 50.762,77.245 50.071 C 76.216 49.387,75.298 48.828,75.204 48.828 C 74.694 48.828,75.224 49.412,76.759 50.542 C 79.191 52.331,81.655 56.017,81.655 57.866 C 81.655 57.920,81.066 57.470,80.345 56.867 C 76.656 53.779,75.254 53.879,76.565 57.136 C 77.522 59.514,77.307 59.755,75.649 58.166 C 72.623 55.268,71.172 54.385,71.172 55.440 C 71.172 55.808,71.040 55.932,70.761 55.825 C 70.209 55.613,69.914 56.447,70.353 56.976 C 71.420 58.261,65.870 55.212,64.232 53.613 C 63.197 52.602,62.723 52.564,63.629 53.564 C 64.153 54.144,63.896 54.197,62.658 53.765 C 61.032 53.198,60.734 53.671,61.940 54.906 C 63.221 56.218,63.193 56.225,60.872 55.172 C 58.793 54.230,58.758 54.222,58.760 54.690 C 58.761 54.879,59.785 55.563,61.036 56.209 C 62.287 56.855,63.745 57.766,64.276 58.233 C 65.314 59.144,64.936 59.044,63.586 58.050 C 61.258 56.335,58.759 55.426,58.759 56.294 C 58.759 56.733,58.882 56.826,59.292 56.696 C 59.815 56.530,63.172 58.369,63.172 58.822 C 63.172 58.933,62.566 59.011,61.824 58.994 C 61.082 58.977,60.343 59.046,60.181 59.146 C 60.018 59.246,59.703 58.976,59.481 58.545 C 59.059 57.730,58.019 57.103,57.086 57.103 C 56.788 57.103,55.459 56.545,54.134 55.863 C 50.985 54.241,50.274 54.271,53.103 55.906 C 54.317 56.607,55.368 57.231,55.437 57.292 C 55.507 57.354,55.240 57.678,54.843 58.012 C 54.446 58.347,53.980 58.901,53.808 59.244 C 53.565 59.727,53.343 59.829,52.817 59.697 C 52.057 59.506,51.954 59.742,52.512 60.392 C 52.835 60.768,53.868 64.293,53.703 64.458 C 53.671 64.490,52.875 64.028,51.936 63.431 C 50.117 62.274,49.655 62.128,49.655 62.707 C 49.655 63.124,51.141 64.629,51.348 64.422 C 51.424 64.346,51.912 64.735,52.433 65.287 C 53.111 66.006,53.223 66.230,52.828 66.080 C 51.093 65.419,45.793 65.595,45.793 66.313 C 45.793 66.601,46.717 66.713,49.944 66.817 C 54.768 66.972,54.474 66.802,54.976 69.724 C 55.424 72.332,55.462 72.276,54.022 71.135 C 52.343 69.805,51.978 70.500,53.493 72.144 C 55.121 73.910,55.711 75.339,55.718 77.538 L 55.724 79.351 53.172 79.360 C 51.500 79.366,50.205 79.526,49.414 79.823 C 46.632 80.867,45.697 80.520,42.483 77.255 C 40.515 75.256,35.987 71.582,34.483 70.765 C 33.737 70.359,34.545 71.029,36.828 72.708 C 39.725 74.840,43.194 78.345,44.679 80.642 C 45.334 81.654,45.947 82.483,46.040 82.483 C 46.134 82.483,46.644 82.356,47.174 82.201 C 48.695 81.757,51.877 81.356,52.216 81.566 C 52.386 81.671,53.111 81.765,53.826 81.775 C 55.638 81.802,55.609 81.664,54.939 87.104 C 54.608 89.797,54.339 92.514,54.341 93.143 C 54.345 94.239,54.250 94.366,52.026 96.238 C 50.750 97.312,49.057 98.938,48.264 99.850 C 46.438 101.949,41.789 104.675,39.061 105.246 C 37.915 105.486,36.638 106.028,35.443 106.783 C 31.182 109.473,29.107 108.405,30.902 104.445 C 31.789 102.490,31.761 102.136,30.646 101.127 C 30.329 100.839,30.069 100.433,30.069 100.224 C 30.069 100.016,29.888 99.775,29.667 99.691 C 29.389 99.584,29.313 99.295,29.421 98.755 C 29.571 98.008,29.523 97.966,28.320 97.785 C 27.628 97.682,26.664 97.303,26.176 96.943 C 25.689 96.583,24.889 96.157,24.398 95.995 C 23.908 95.833,23.444 95.463,23.369 95.173 C 22.736 92.755,16.943 96.393,15.654 100.018 C 14.399 103.546,15.699 105.674,20.228 107.502 C 24.630 109.278,24.756 109.878,21.427 113.174 C 18.265 116.304,17.677 117.270,17.239 120.056 C 16.384 125.489,15.670 127.637,13.410 131.569 C 12.751 132.716,11.328 135.500,10.249 137.755 C 8.458 141.495,5.489 146.207,4.922 146.207 C 4.271 146.207,2.466 148.283,2.199 149.340 C 2.040 149.969,1.666 150.934,1.369 151.486 C 0.664 152.792,0.686 153.225,1.488 153.839 C 2.132 154.332,2.141 154.398,1.864 156.414 C 1.015 162.577,3.281 174.106,7.852 186.879 C 11.166 196.138,11.919 198.744,17.108 218.897 C 19.413 227.848,21.424 235.297,21.577 235.448 C 21.763 235.633,21.805 235.542,21.703 235.172 C 21.619 234.869,20.294 229.655,18.758 223.586 C 13.932 204.521,11.256 195.396,6.920 183.219 C 3.412 173.366,1.183 159.822,2.305 155.172 C 2.576 154.051,4.448 152.744,6.050 152.557 L 7.285 152.414 8.068 150.359 C 9.127 147.580,8.486 148.032,22.759 140.012 C 25.500 138.472,29.849 135.702,31.988 134.133 C 32.417 133.818,32.568 134.027,33.487 136.202 C 36.914 144.319,41.946 148.105,46.284 145.831 C 46.883 145.517,47.491 145.414,48.087 145.526 C 48.715 145.644,49.565 145.475,50.907 144.966 C 52.772 144.258,52.853 144.251,53.718 144.711 C 54.540 145.148,54.724 145.151,56.118 144.754 C 58.076 144.197,58.290 144.420,57.926 146.641 C 57.240 150.831,57.352 151.349,60.590 158.932 C 63.681 166.170,64.791 170.495,63.448 170.069 C 62.731 169.841,62.731 170.366,63.448 171.448 C 63.847 172.050,63.997 172.744,63.998 173.986 C 64.002 177.651,65.098 179.862,66.912 179.862 C 67.400 179.862,67.714 180.135,68.103 180.897 C 69.186 183.019,70.443 183.422,73.079 182.491 L 74.249 182.079 74.095 182.832 C 74.011 183.247,73.442 186.317,72.830 189.655 C 72.219 192.993,71.662 195.978,71.592 196.289 C 71.185 198.107,56.456 215.119,46.138 225.688 C 39.079 232.918,39.072 232.246,46.238 235.411 C 48.835 236.558,52.545 238.246,54.483 239.162 C 57.477 240.577,58.386 240.876,60.521 241.150 C 61.903 241.328,63.070 241.498,63.114 241.529 C 63.158 241.560,62.072 247.638,60.701 255.036 C 59.329 262.434,58.204 268.564,58.200 268.657 C 58.197 268.751,57.706 269.188,57.110 269.629 C 56.273 270.249,56.082 270.534,56.270 270.885 C 56.406 271.140,56.409 271.509,56.277 271.723 C 56.132 271.956,56.196 272.407,56.441 272.880 C 56.767 273.511,56.773 273.655,56.473 273.655 C 55.703 273.655,55.291 276.430,55.983 276.953 L 56.590 277.411 55.482 278.553 C 54.249 279.823,53.678 280.802,53.391 282.138 C 53.162 283.200,53.238 283.185,51.805 282.453 C 50.923 282.004,50.379 281.910,49.401 282.040 L 48.137 282.208 47.466 280.943 C 47.097 280.247,46.150 279.099,45.360 278.391 C 43.997 277.169,43.914 277.016,43.728 275.379 C 43.529 273.631,43.693 273.151,44.107 274.270 C 44.289 274.761,44.375 274.563,44.535 273.282 C 44.710 271.880,44.779 271.741,45.093 272.170 C 45.412 272.607,45.471 272.535,45.646 271.504 C 45.832 270.400,46.326 269.638,46.362 270.398 C 46.398 271.132,46.876 269.491,46.999 268.216 C 47.068 267.490,47.260 266.547,47.425 266.120 C 47.808 265.126,47.811 262.609,47.429 261.605 C 46.567 259.338,43.199 256.300,41.918 256.635 C 41.615 256.714,40.997 256.594,40.544 256.369 C 38.900 255.548,38.092 256.113,34.558 260.552 C 32.513 263.119,30.911 267.189,32.276 266.345 C 32.592 266.150,32.625 266.600,32.384 267.805 C 32.267 268.390,32.013 268.696,31.549 268.812 C 29.893 269.228,27.810 271.812,26.433 275.159 C 25.375 277.730,22.964 280.276,21.587 280.276 C 20.492 280.276,17.846 281.345,15.634 282.681 C 14.382 283.437,13.578 283.702,11.998 283.879 C 7.471 284.387,5.794 286.654,7.358 290.155 C 7.582 290.657,7.946 291.137,8.167 291.222 C 8.400 291.311,8.504 291.576,8.416 291.856 C 8.137 292.735,8.553 293.241,9.553 293.241 C 10.696 293.241,13.085 291.244,12.880 290.460 C 12.801 290.160,12.991 289.882,13.405 289.694 C 13.762 289.531,14.130 289.095,14.223 288.724 C 14.391 288.055,14.419 288.050,18.308 287.956 C 23.420 287.833,24.131 287.505,26.793 284.035 C 29.452 280.569,29.803 280.342,30.370 281.724 C 30.572 282.217,31.880 284.132,33.277 285.978 C 35.971 289.541,36.124 290.207,34.245 290.207 C 30.639 290.207,28.605 294.844,29.943 300.011 C 31.303 305.259,35.552 306.404,38.180 302.230 C 39.425 300.254,39.407 300.615,38.026 305.302 C 37.838 305.942,37.777 306.559,37.891 306.673 C 38.378 307.160,39.101 305.030,39.359 302.345 C 39.454 301.359,39.669 300.462,39.835 300.353 C 40.052 300.211,40.054 300.015,39.843 299.664 C 39.680 299.393,39.624 298.863,39.717 298.486 C 39.932 297.610,40.108 297.918,40.663 300.138 C 41.884 305.029,46.331 310.069,49.423 310.069 C 50.302 310.069,49.976 315.701,48.833 320.276 C 48.061 323.367,47.993 325.793,48.680 325.793 C 49.720 325.793,50.412 322.539,50.793 315.862 C 50.962 312.903,51.122 310.457,51.147 310.426 C 51.173 310.395,52.245 311.388,53.530 312.633 C 56.630 315.636,59.374 317.660,63.644 320.094 C 66.358 321.641,67.278 322.312,67.630 323.003 C 67.881 323.496,68.280 324.114,68.517 324.375 C 69.029 324.942,69.255 326.772,69.327 330.937 C 69.369 333.429,69.471 334.114,69.862 334.545 C 70.196 334.914,70.345 335.538,70.347 336.573 C 70.348 337.396,70.598 339.683,70.903 341.655 C 71.882 347.984,71.957 354.597,71.034 353.103 C 70.941 352.952,70.561 352.828,70.191 352.828 C 69.276 352.828,69.293 353.740,70.216 354.161 L 70.914 354.479 69.250 356.107 C 68.240 357.096,67.569 357.991,67.542 358.385 C 67.416 360.263,67.852 360.853,69.888 361.562 C 71.026 361.959,71.884 362.628,74.176 364.906 C 79.635 370.331,84.138 371.100,84.138 366.607 C 84.138 364.679,83.746 363.779,82.031 361.767 C 81.372 360.993,80.641 359.818,80.407 359.154 C 80.173 358.490,79.754 357.695,79.475 357.387 C 79.184 357.066,78.899 356.198,78.804 355.350 C 78.620 353.695,78.263 353.103,77.449 353.103 C 76.622 353.103,76.884 345.243,77.899 339.586 C 78.293 337.386,78.617 335.070,78.618 334.438 C 78.621 333.297,78.632 333.284,80.474 332.369 C 82.755 331.236,83.301 330.439,82.840 328.913 C 82.665 328.335,82.262 326.952,81.943 325.839 C 80.694 321.475,79.542 319.873,74.840 315.959 C 73.067 314.483,70.661 312.108,69.222 310.413 C 63.266 303.397,62.283 302.313,60.732 301.053 C 59.006 299.652,58.166 298.450,58.771 298.249 C 58.954 298.188,59.328 297.914,59.602 297.639 C 60.083 297.158,60.126 297.174,60.823 298.088 C 61.900 299.500,62.853 299.854,66.706 300.277 C 70.929 300.740,71.847 300.991,73.382 302.102 C 75.510 303.644,76.243 303.829,78.012 303.273 C 78.884 302.999,79.588 302.902,79.638 303.050 C 79.983 304.072,81.055 305.254,82.411 306.106 C 85.577 308.097,87.252 310.147,86.404 310.995 C 86.017 311.382,85.999 311.549,86.291 312.016 C 86.598 312.508,86.534 312.681,85.761 313.454 C 81.443 317.772,83.915 321.098,91.448 321.103 C 95.640 321.106,96.115 321.293,97.897 323.638 C 102.496 329.690,110.443 329.429,107.322 323.329 C 106.977 322.656,105.468 320.877,103.969 319.376 C 102.469 317.875,101.241 316.562,101.241 316.457 C 101.241 315.890,96.208 311.662,95.967 312.026 C 95.357 312.947,92.252 307.945,91.554 304.918 C 91.234 303.527,91.248 303.456,92.125 302.090 C 93.994 299.176,93.833 298.487,90.453 294.920 C 88.371 292.723,87.963 292.414,87.143 292.413 C 86.628 292.412,85.784 292.154,85.268 291.839 C 82.745 290.301,76.258 288.669,68.414 287.600 C 65.607 287.217,62.863 286.777,62.315 286.622 L 61.320 286.341 61.137 284.370 C 61.036 283.287,60.661 281.674,60.302 280.786 C 59.683 279.252,59.676 279.172,60.170 279.172 C 60.826 279.172,60.843 278.459,60.217 277.215 C 59.486 275.765,59.322 274.186,59.834 273.536 C 60.390 272.830,60.465 271.134,59.948 270.994 C 58.280 270.543,58.303 270.221,61.055 255.340 L 63.586 241.658 64.414 241.660 C 70.115 241.676,76.225 245.086,77.710 249.080 L 78.266 250.574 80.591 251.045 C 86.477 252.236,90.914 255.242,97.070 262.207 L 98.533 263.862 99.266 262.897 C 102.710 258.364,106.796 255.683,111.262 255.024 L 112.593 254.828 112.397 257.828 C 112.289 259.478,112.048 261.945,111.860 263.310 C 111.197 268.139,112.124 265.314,113.264 259.034 C 114.128 254.272,113.735 254.791,116.097 255.283 C 119.143 255.918,124.362 258.624,127.172 261.026 C 127.508 261.313,127.602 262.390,127.668 266.759 C 127.712 269.717,127.912 273.938,128.112 276.138 L 128.475 280.138 128.512 276.414 C 128.560 271.509,129.135 262.897,129.415 262.897 C 129.860 262.897,130.135 263.917,130.302 266.188 C 130.527 269.243,130.913 269.570,131.162 266.917 C 131.269 265.768,131.440 264.828,131.541 264.828 C 131.808 264.828,144.571 269.842,147.236 270.993 C 153.210 273.575,160.629 277.880,163.340 280.339 L 164.336 281.241 163.789 303.724 C 163.488 316.090,163.207 326.247,163.164 326.296 C 162.938 326.554,161.334 325.401,160.988 324.733 C 158.957 320.805,152.486 319.808,149.354 322.940 C 148.148 324.146,148.137 324.653,149.336 323.738 C 150.617 322.762,150.894 322.859,149.887 323.931 C 149.424 324.424,148.630 325.448,148.122 326.207 L 147.198 327.586 148.249 326.791 C 149.732 325.669,149.151 326.729,147.110 328.870 C 145.540 330.516,144.552 332.558,144.552 334.157 C 144.552 334.658,144.314 336.053,144.023 337.258 C 143.357 340.018,143.097 341.802,143.441 341.249 C 143.785 340.697,143.894 340.888,144.090 342.388 C 144.208 343.289,144.156 343.711,143.915 343.804 C 142.229 344.451,141.382 349.029,141.633 356.138 C 141.850 362.269,142.040 363.149,143.314 363.901 C 144.281 364.471,144.411 364.705,144.681 366.345 C 144.839 367.309,144.837 367.311,142.626 368.524 C 136.790 371.724,136.432 374.343,141.000 380.393 C 143.203 383.311,143.932 383.679,146.328 383.084 L 148.000 382.668 149.180 383.812 C 150.299 384.899,150.350 385.016,150.183 386.135 C 149.696 389.377,150.616 391.448,152.542 391.448 C 153.835 391.448,154.207 390.955,154.207 389.241 C 154.207 387.800,154.950 387.910,156.373 389.563 C 157.597 390.984,159.430 392.693,161.793 394.617 C 162.855 395.481,165.540 397.912,167.759 400.017 L 171.793 403.846 171.934 407.923 C 172.201 415.639,174.545 421.118,179.795 426.296 L 181.983 428.453 181.853 431.834 C 181.701 435.765,181.935 436.179,184.500 436.519 C 185.241 436.617,186.576 437.092,187.465 437.574 C 190.556 439.248,194.991 438.871,195.705 436.874 C 196.031 435.965,195.475 435.295,193.440 434.142 C 192.601 433.667,191.647 432.827,191.188 432.160 C 190.100 430.580,188.364 429.059,187.407 428.849 C 186.797 428.715,186.300 428.182,185.254 426.544 C 180.890 419.705,179.543 415.988,179.186 409.793 C 178.945 405.609,178.528 402.896,177.849 401.105 C 177.533 400.270,177.257 399.400,177.236 399.172 C 177.215 398.945,177.177 398.551,177.151 398.297 C 177.095 397.755,172.859 391.289,170.223 387.724 C 167.823 384.478,167.930 384.718,168.458 383.798 L 168.919 382.995 173.333 384.478 C 177.987 386.042,183.458 387.480,185.829 387.762 L 187.245 387.930 187.438 390.410 C 187.899 396.300,190.710 401.728,195.582 406.138 C 197.189 407.592,197.223 407.652,196.960 408.571 C 195.546 413.502,197.191 415.166,203.482 415.171 C 205.214 415.172,206.029 415.312,207.068 415.789 C 210.104 417.180,214.649 416.388,214.842 414.435 C 214.956 413.290,214.390 412.805,212.711 412.606 C 210.121 412.299,208.988 411.579,207.553 409.329 C 205.347 405.869,204.422 405.201,203.277 406.237 C 201.918 407.467,195.634 393.796,195.029 388.292 C 194.545 383.883,193.977 382.380,192.560 381.752 C 192.100 381.549,191.724 381.296,191.724 381.190 C 191.724 379.849,176.343 372.047,166.759 368.526 C 163.763 367.425,163.978 367.569,164.519 367.028 C 165.408 366.139,164.691 362.223,163.458 361.231 C 162.788 360.692,162.759 360.546,162.759 357.696 C 162.759 353.423,162.492 353.645,167.526 353.726 C 175.967 353.861,177.237 351.012,172.123 343.410 C 169.280 339.184,164.816 333.164,164.113 332.607 C 163.434 332.070,163.370 331.889,163.560 331.034 L 163.775 330.069 164.138 331.310 L 164.502 332.552 164.779 331.634 C 165.005 330.891,164.948 330.459,164.483 329.358 C 164.168 328.611,164.000 328.000,164.110 328.000 C 164.454 328.000,165.748 329.483,166.036 330.207 C 166.299 330.870,166.311 330.860,166.327 329.949 C 166.342 329.162,166.110 328.776,164.952 327.660 L 163.559 326.317 164.107 304.096 C 164.408 291.874,164.735 281.794,164.833 281.696 C 165.151 281.379,171.665 288.336,173.579 291.038 C 176.431 295.062,178.576 299.581,179.732 304.000 C 183.477 318.314,185.753 320.269,194.207 316.432 C 203.285 312.312,205.422 311.706,215.172 310.491 C 222.549 309.571,226.348 308.874,230.398 307.695 C 230.805 307.576,230.832 307.676,230.605 308.467 C 230.258 309.679,230.277 311.701,230.672 315.489 C 231.080 319.410,231.436 319.013,231.450 314.621 C 231.462 310.710,231.818 309.662,233.681 308.054 C 234.350 307.476,235.579 306.395,236.414 305.651 C 237.248 304.907,238.920 303.510,240.128 302.547 C 241.508 301.447,242.636 300.274,243.162 299.393 C 243.623 298.622,244.683 297.325,245.517 296.513 C 246.352 295.700,247.966 293.867,249.103 292.441 C 251.370 289.600,254.290 286.947,257.124 285.156 L 258.952 284.000 259.274 281.944 C 259.866 278.167,260.224 277.978,266.116 278.330 L 270.413 278.588 273.150 277.317 L 275.887 276.047 277.461 276.682 C 279.617 277.553,279.545 277.441,280.819 281.931 C 282.600 288.208,284.608 291.846,287.442 293.927 C 288.204 294.486,288.830 295.026,288.833 295.127 C 288.845 295.572,287.117 309.419,287.006 309.765 C 286.908 310.070,286.753 310.035,286.269 309.600 C 285.161 308.603,284.977 308.598,284.575 309.556 C 284.313 310.179,283.906 310.558,283.269 310.772 C 282.296 311.100,282.049 311.608,282.326 312.711 C 282.433 313.140,282.691 313.379,283.045 313.379 C 283.506 313.379,283.568 313.505,283.421 314.138 C 283.042 315.771,282.592 316.138,280.971 316.138 C 279.588 316.138,279.412 316.213,278.701 317.103 C 278.278 317.634,277.714 318.069,277.448 318.069 C 277.183 318.069,276.966 318.193,276.966 318.345 C 276.966 318.497,277.138 318.621,277.350 318.621 C 277.561 318.621,277.806 318.807,277.893 319.034 C 278.111 319.604,278.990 319.553,280.276 318.897 C 282.105 317.963,284.138 318.471,284.138 319.860 C 284.138 320.328,282.515 321.582,280.276 322.844 C 278.323 323.945,276.130 326.152,272.548 330.621 C 270.967 332.593,269.063 334.766,268.316 335.448 C 263.151 340.171,262.276 341.907,261.648 348.686 C 261.203 353.493,261.198 353.513,260.367 354.207 C 259.266 355.126,258.918 357.288,259.796 357.757 C 261.385 358.608,259.879 366.033,257.754 367.821 C 257.266 368.232,256.826 368.985,256.616 369.770 C 256.216 371.268,254.917 372.774,251.721 375.448 C 246.185 380.079,247.476 381.188,254.734 378.035 L 258.846 376.249 261.415 376.438 C 265.191 376.715,265.534 376.443,265.222 373.418 C 265.094 372.183,265.013 370.502,265.042 369.682 C 265.079 368.613,264.974 368.104,264.669 367.881 C 263.857 367.287,266.899 360.053,267.809 360.414 C 271.005 361.681,271.714 361.315,271.720 358.395 C 271.723 356.701,271.830 356.236,272.383 355.499 C 273.220 354.383,274.246 352.334,275.314 349.647 C 276.724 346.097,277.233 345.312,279.414 343.322 C 280.571 342.267,283.566 339.397,286.069 336.945 C 290.447 332.656,290.673 332.478,292.000 332.287 C 292.759 332.177,294.350 331.714,295.536 331.258 C 296.722 330.802,297.720 330.472,297.754 330.524 C 297.787 330.577,298.116 331.284,298.484 332.094 C 299.265 333.815,300.288 334.767,301.793 335.172 C 304.623 335.934,306.621 338.991,306.621 342.558 C 306.621 345.387,306.646 345.437,308.640 346.528 C 309.248 346.861,309.790 347.631,310.617 349.339 C 311.800 351.784,311.830 351.929,311.556 353.864 C 311.446 354.646,311.538 355.409,311.833 356.145 C 312.083 356.770,312.279 358.062,312.282 359.109 C 312.291 361.974,312.684 362.333,315.396 361.956 C 316.562 361.794,317.755 361.511,318.048 361.328 C 319.796 360.237,319.446 356.755,317.430 355.172 C 317.237 355.021,316.940 354.338,316.770 353.655 C 316.600 352.972,316.270 351.917,316.036 351.310 C 315.559 350.073,315.425 345.787,315.855 345.522 C 316.288 345.254,317.241 341.839,317.241 340.556 C 317.241 339.496,317.118 339.276,316.019 338.375 C 314.652 337.255,313.272 334.221,312.816 331.330 C 312.660 330.345,311.904 328.454,310.713 326.069 C 309.689 324.021,308.892 322.221,308.942 322.069 C 309.322 320.895,309.244 319.279,308.723 317.565 C 308.401 316.505,308.137 315.161,308.135 314.578 C 308.133 313.995,307.947 312.908,307.721 312.163 C 306.502 308.144,308.277 302.899,312.298 298.643 C 316.394 294.307,316.753 290.343,313.368 286.831 C 312.616 286.051,312.000 285.352,312.000 285.279 C 312.000 284.805,313.151 284.060,314.462 283.687 C 321.023 281.817,323.450 276.404,319.926 271.501 C 317.687 268.386,312.026 266.429,310.205 268.140 C 309.128 269.151,308.563 268.789,308.479 267.032 C 308.380 264.972,309.067 259.855,309.744 257.608 C 310.365 255.544,310.952 252.258,311.598 247.218 C 311.990 244.161,312.127 243.686,312.951 242.529 C 314.092 240.925,315.148 238.824,316.837 234.796 L 318.152 231.661 317.833 227.485 C 316.986 216.402,317.977 215.523,326.932 219.424 C 327.306 219.587,327.414 219.356,327.580 218.026 C 328.172 213.283,330.801 208.630,334.192 206.320 C 334.887 205.847,335.169 205.449,335.171 204.939 C 335.172 204.546,335.403 204.015,335.684 203.760 C 335.966 203.506,336.480 202.744,336.828 202.068 C 337.176 201.392,337.718 200.757,338.034 200.657 C 338.981 200.356,340.407 199.335,340.410 198.955 C 340.424 197.578,342.586 195.146,345.000 193.792 C 345.740 193.378,347.060 192.552,347.934 191.956 L 349.522 190.874 349.773 191.534 C 349.911 191.897,350.562 192.610,351.219 193.119 C 351.876 193.627,353.294 194.868,354.370 195.875 C 356.019 197.421,356.743 197.873,358.986 198.761 C 360.720 199.447,361.703 199.991,361.808 200.322 C 361.897 200.602,362.253 201.171,362.600 201.588 C 362.947 202.004,363.312 202.789,363.412 203.333 C 363.512 203.876,364.030 205.045,364.563 205.931 L 365.532 207.540 364.851 208.253 C 364.059 209.081,362.664 211.991,362.826 212.477 C 362.886 212.659,362.244 213.257,361.399 213.805 C 358.100 215.945,355.030 219.322,353.179 222.845 L 352.210 224.690 352.393 228.138 C 352.494 230.034,352.569 235.155,352.561 239.517 C 352.542 249.195,352.548 249.168,349.480 253.430 C 347.115 256.717,347.059 257.784,349.202 258.679 C 351.669 259.711,353.538 259.124,354.939 256.879 C 355.478 256.016,356.467 254.499,357.137 253.506 C 358.515 251.465,359.006 249.440,358.741 246.897 C 358.613 245.674,358.784 244.630,359.618 241.517 C 360.608 237.822,360.651 237.476,360.623 233.512 L 360.593 229.370 361.554 228.046 C 362.100 227.293,363.550 225.985,364.913 225.016 C 367.365 223.271,370.028 220.818,370.805 219.586 C 371.211 218.942,371.237 219.177,371.196 223.135 C 371.150 227.522,371.304 228.117,372.272 227.313 C 372.989 226.718,373.046 225.287,372.438 223.121 C 371.126 218.444,371.711 217.400,375.896 216.952 C 377.848 216.743,379.310 215.816,379.310 214.787 C 379.310 214.552,379.679 214.168,380.130 213.935 C 381.084 213.442,381.633 212.562,381.387 211.921 C 381.283 211.650,381.851 210.226,382.814 208.340 L 384.414 205.209 384.414 202.066 C 384.414 199.920,384.304 198.815,384.069 198.579 C 383.457 197.968,383.626 196.138,384.294 196.138 C 385.507 196.138,388.885 198.671,390.150 200.529 C 392.511 203.996,395.111 205.378,397.221 204.286 C 399.084 203.323,399.493 198.746,397.764 198.198 C 397.491 198.111,396.824 197.597,396.282 197.055 C 395.388 196.160,395.197 196.086,394.204 196.244 C 393.395 196.374,392.851 196.280,392.109 195.882 C 391.081 195.331,389.001 195.322,387.724 195.864 C 386.591 196.344,386.325 196.329,385.517 195.738 C 385.062 195.404,384.472 195.052,384.207 194.954 C 383.941 194.856,383.723 194.555,383.722 194.285 C 383.714 192.730,382.550 181.571,382.194 179.644 C 381.328 174.956,379.739 171.537,376.782 167.999 L 375.219 166.129 376.060 165.960 C 377.122 165.748,378.818 163.995,378.704 163.228 C 378.579 162.383,377.931 162.301,377.931 163.130 C 377.931 164.451,376.322 165.322,375.129 164.646 L 374.483 164.280 375.241 164.191 C 376.269 164.070,376.201 163.793,374.829 162.514 C 374.185 161.913,373.750 161.330,373.862 161.218 C 373.974 161.106,374.293 161.221,374.572 161.473 C 375.581 162.386,375.583 161.689,374.576 160.233 C 374.297 159.831,374.069 159.107,374.069 158.626 C 374.069 156.980,372.901 156.224,368.690 155.147 C 367.881 154.940,367.878 154.932,368.552 154.823 C 368.931 154.762,369.337 154.621,369.453 154.510 C 369.745 154.231,365.369 153.547,364.765 153.778 C 364.372 153.927,364.344 153.895,364.622 153.615 C 364.825 153.410,365.693 153.262,366.731 153.254 C 368.821 153.239,368.861 152.940,366.808 152.684 C 364.319 152.373,359.317 154.362,358.593 155.951 C 358.221 156.766,355.630 158.249,355.464 157.741 C 355.399 157.542,352.416 137.551,348.835 113.318 L 342.325 69.256 342.873 68.122 C 343.383 67.066,343.400 66.775,343.113 63.854 C 342.885 61.519,342.887 60.147,343.124 58.474 C 343.356 56.833,343.360 56.074,343.138 55.660 C 342.219 53.943,345.225 46.024,346.989 45.514 C 348.182 45.169,356.283 43.780,359.931 43.295 C 362.409 42.966,363.399 42.481,361.586 42.484 C 359.903 42.487,351.222 43.319,349.126 43.678 C 346.534 44.122,346.398 44.777,350.544 36.812 L 354.054 30.069 355.252 30.069 C 355.911 30.069,356.701 30.203,357.007 30.367 C 358.386 31.105,357.891 29.235,356.483 28.389 C 355.914 28.046,355.413 27.742,355.369 27.712 C 355.325 27.682,355.440 27.328,355.623 26.925 C 356.007 26.082,356.511 26.113,356.640 26.987 C 356.761 27.811,357.188 27.738,357.579 26.828 C 357.758 26.410,357.930 26.029,357.960 25.981 C 357.990 25.932,358.270 26.052,358.581 26.246 C 359.265 26.673,359.675 26.360,359.283 25.711 C 358.798 24.908,356.676 24.000,355.285 24.000 C 354.111 24.000,353.968 23.926,353.650 23.159 C 352.781 21.062,350.029 21.015,347.608 23.057 L 346.664 23.853 346.853 22.906 C 347.028 22.035,347.305 21.673,347.981 21.436 C 348.122 21.387,348.152 21.124,348.047 20.851 C 347.934 20.557,347.691 20.421,347.446 20.514 C 347.123 20.638,347.034 20.434,347.034 19.569 C 347.034 18.317,346.558 17.958,345.523 18.430 C 345.013 18.662,344.841 18.640,344.722 18.328 C 344.489 17.721,343.937 17.848,344.132 18.464 C 344.260 18.868,344.048 19.170,343.254 19.712 L 342.207 20.427 341.850 19.110 C 340.823 15.325,336.903 6.968,336.016 6.672 C 335.818 6.606,335.703 6.660,335.762 6.793 C 335.821 6.926,336.767 8.834,337.866 11.034 C 339.987 15.283,341.062 18.701,340.913 20.725 C 340.781 22.522,340.240 22.346,340.068 20.450 C 339.986 19.549,339.777 18.583,339.603 18.302 C 339.265 17.758,339.257 17.647,339.745 20.483 C 339.863 21.164,339.819 21.517,339.617 21.517 C 339.448 21.517,339.310 21.145,339.310 20.690 C 339.310 19.368,338.596 19.680,338.206 21.172 L 337.865 22.483 337.494 20.721 C 337.042 18.577,336.252 17.343,334.642 16.265 C 332.601 14.898,331.913 15.273,333.863 16.690 C 335.369 17.783,336.299 19.635,336.481 21.901 L 336.624 23.689 334.726 25.492 C 332.172 27.918,331.007 28.022,332.709 25.672 C 333.505 24.574,333.526 24.481,333.064 24.143 C 332.604 23.806,332.638 23.685,333.596 22.241 C 334.979 20.158,334.873 19.150,333.385 20.238 C 333.102 20.444,332.672 20.561,332.428 20.497 C 332.150 20.425,331.292 21.098,330.134 22.298 C 329.116 23.352,328.003 24.289,327.659 24.381 C 327.316 24.473,325.995 25.299,324.724 26.217 C 321.679 28.417,321.557 28.097,324.437 25.462 C 327.173 22.958,329.655 20.376,329.655 20.033 C 329.655 19.783,327.938 19.941,327.140 20.264 C 326.832 20.389,326.647 20.269,326.545 19.878 C 326.463 19.566,326.252 19.310,326.076 19.310 C 325.898 19.310,325.822 19.524,325.906 19.793 C 326.108 20.442,325.935 20.636,323.935 22.006 C 322.379 23.073,322.240 23.122,322.469 22.518 C 322.829 21.573,322.248 20.841,321.285 21.025 C 320.418 21.190,320.238 19.755,320.966 18.483 C 321.487 17.570,321.487 17.003,320.966 17.203 C 320.658 17.321,320.552 17.162,320.552 16.578 C 320.552 15.549,319.255 10.455,318.904 10.104 C 318.384 9.584,318.385 10.083,318.904 11.958 C 319.191 12.992,319.554 14.728,319.710 15.816 L 319.995 17.793 319.111 18.552 C 317.768 19.705,317.260 19.579,317.440 18.138 C 317.541 17.329,317.498 17.051,317.300 17.241 C 317.142 17.393,316.971 17.828,316.920 18.207 C 316.846 18.763,316.667 18.901,316.000 18.918 C 314.707 18.952,312.597 20.012,312.233 20.811 C 311.785 21.794,311.547 21.694,311.346 20.438 C 310.861 17.403,307.934 13.113,307.180 14.332 C 307.091 14.477,307.463 15.216,308.008 15.974 C 310.129 18.926,310.809 22.354,309.518 23.586 C 308.732 24.338,308.627 24.369,308.382 23.932 C 308.128 23.479,308.046 23.484,306.995 24.020 C 306.380 24.334,305.831 24.544,305.774 24.487 C 305.530 24.243,307.399 22.345,307.882 22.345 C 308.422 22.345,308.550 21.917,308.246 21.126 C 308.024 20.547,307.680 20.576,306.828 21.246 C 306.423 21.565,305.908 21.735,305.624 21.645 C 305.352 21.559,304.828 21.685,304.460 21.926 C 303.910 22.286,303.663 22.305,303.062 22.031 C 302.431 21.744,302.221 21.781,301.512 22.305 L 300.692 22.911 301.192 21.594 C 301.774 20.059,301.786 18.379,301.215 18.272 C 300.222 18.085,296.011 22.257,294.947 24.483 C 294.023 26.416,294.177 25.232,295.198 22.552 C 296.375 19.466,296.461 19.034,295.905 19.034 C 295.388 19.034,294.813 19.747,293.904 21.517 L 293.124 23.034 292.969 21.778 C 292.884 21.087,292.538 20.170,292.200 19.741 C 291.842 19.285,291.586 18.574,291.586 18.032 C 291.586 17.391,291.458 17.103,291.172 17.103 C 290.875 17.103,290.759 17.408,290.759 18.187 C 290.759 19.229,290.703 19.295,289.265 19.954 C 288.444 20.330,287.308 20.953,286.740 21.338 L 285.708 22.040 285.173 21.020 C 284.519 19.772,283.669 18.859,283.407 19.122 C 283.300 19.229,283.468 19.781,283.781 20.348 C 284.868 22.317,284.586 24.000,283.169 24.000 C 282.992 24.000,282.706 24.310,282.533 24.690 C 282.360 25.069,282.092 25.379,281.937 25.379 C 281.550 25.379,281.560 25.343,282.380 23.877 C 283.474 21.918,282.895 21.817,280.744 23.592 L 278.897 25.116 278.897 23.316 C 278.897 22.301,278.776 21.517,278.621 21.517 C 278.469 21.517,278.345 21.936,278.345 22.448 C 278.345 24.515,278.102 24.913,276.268 25.844 C 274.442 26.771,274.207 26.764,274.207 25.776 C 274.207 24.917,273.204 21.760,272.721 21.100 C 272.054 20.187,271.993 20.757,272.563 22.588 C 273.633 26.026,272.984 28.310,271.468 26.439 C 270.825 25.645,270.511 25.895,269.394 28.089 C 268.420 30.004,266.789 32.126,266.770 31.505 C 266.764 31.308,267.379 30.228,268.138 29.103 C 270.360 25.811,269.898 25.537,266.965 28.407 C 264.587 30.733,264.352 30.686,265.991 28.215 C 268.820 23.947,268.970 23.448,267.430 23.448 C 266.889 23.448,266.196 23.582,265.889 23.746 C 265.109 24.164,265.101 24.096,265.669 21.931 C 266.795 17.638,266.205 17.601,264.163 21.836 L 263.012 24.223 262.562 21.146 C 262.017 17.426,260.840 13.517,260.264 13.517 C 259.763 13.517,259.736 13.250,260.566 16.603 C 261.543 20.550,261.837 25.933,261.075 25.927 C 259.937 25.918,259.687 25.464,260.400 24.704 C 260.925 24.145,260.970 24.000,260.616 24.000 C 260.371 24.000,260.086 24.137,259.982 24.305 C 259.700 24.761,259.320 24.027,259.315 23.021 C 259.310 22.136,258.890 21.517,258.293 21.517 C 258.098 21.517,257.509 22.355,256.983 23.379 L 256.027 25.241 256.014 22.699 C 256.002 20.566,255.922 20.117,255.517 19.909 C 254.875 19.579,254.345 19.795,254.345 20.388 C 254.345 21.087,253.512 23.419,253.192 23.617 C 252.252 24.198,252.763 20.465,253.933 18.203 C 254.271 17.550,254.303 17.248,254.067 16.963 C 253.842 16.692,253.838 16.432,254.050 16.036 C 254.485 15.223,254.441 15.172,253.303 15.172 C 251.592 15.172,250.612 16.036,249.389 18.621 L 248.606 20.276 248.657 18.031 C 248.713 15.547,248.879 15.213,250.519 14.292 C 252.352 13.261,251.714 12.814,249.801 13.789 C 248.527 14.438,248.649 14.516,248.409 12.904 C 248.228 11.684,248.261 11.581,248.935 11.274 C 249.847 10.859,249.930 10.088,249.034 10.355 C 248.693 10.457,247.886 10.843,247.241 11.213 C 246.597 11.583,246.069 11.847,246.069 11.799 C 246.069 11.752,246.323 10.796,246.633 9.676 C 247.534 6.427,246.861 6.810,245.323 10.422 C 244.136 13.211,242.514 15.816,242.469 15.006 C 242.462 14.870,242.431 12.400,242.400 9.517 C 242.353 5.067,242.282 4.276,241.931 4.276 C 241.595 4.276,241.490 4.883,241.371 7.502 C 241.291 9.277,241.136 10.818,241.027 10.927 C 240.917 11.037,240.828 10.857,240.828 10.529 C 240.828 9.770,240.388 9.758,239.987 10.506 C 239.392 11.620,239.409 10.785,240.016 9.120 C 240.715 7.204,240.530 6.655,239.584 7.838 L 238.942 8.642 238.634 7.424 C 238.117 5.381,237.862 4.966,237.128 4.966 C 236.599 4.966,236.431 4.803,236.363 4.228 C 236.275 3.487,235.765 3.074,235.488 3.521 M226.579 11.603 C 227.526 12.348,226.973 13.327,225.165 14.102 C 223.099 14.987,223.039 14.806,224.611 12.406 C 225.639 10.836,225.616 10.845,226.579 11.603 M230.621 11.862 C 230.621 12.169,230.437 12.414,230.207 12.414 C 229.708 12.414,229.674 12.092,230.124 11.641 C 230.569 11.196,230.621 11.219,230.621 11.862 M247.724 13.671 C 247.724 14.624,247.620 15.140,247.448 15.034 C 247.297 14.941,247.172 14.623,247.172 14.329 C 247.172 14.034,246.986 13.793,246.759 13.793 C 246.463 13.793,246.345 14.094,246.345 14.844 C 246.345 16.158,245.720 17.129,245.203 16.619 C 244.627 16.051,245.363 13.828,246.429 12.915 C 247.641 11.877,247.724 11.925,247.724 13.671 M217.919 13.344 C 217.912 13.515,217.736 14.028,217.527 14.483 C 217.149 15.309,217.148 15.308,217.126 13.828 C 217.106 12.541,217.158 12.391,217.517 12.690 C 217.745 12.879,217.925 13.173,217.919 13.344 M213.256 16.414 C 214.319 18.229,214.286 18.483,212.867 19.379 C 211.164 20.455,210.982 20.391,211.194 18.794 C 211.491 16.556,210.237 16.775,208.938 19.187 C 208.183 20.590,207.998 20.346,208.465 18.559 C 208.938 16.748,209.427 15.702,210.424 14.371 L 211.128 13.431 211.788 14.233 C 212.151 14.674,212.811 15.655,213.256 16.414 M252.457 17.730 C 251.641 18.916,250.759 19.822,250.759 19.473 C 250.759 18.514,252.963 15.578,253.184 16.243 C 253.238 16.402,252.910 17.072,252.457 17.730 M205.638 19.118 C 205.873 19.785,205.701 20.290,204.326 22.977 L 202.743 26.069 202.909 23.326 C 203.163 19.137,204.772 16.656,205.638 19.118 M345.931 20.398 C 345.931 20.844,345.807 21.286,345.655 21.379 C 345.491 21.481,345.379 21.152,345.379 20.568 C 345.379 20.028,345.503 19.586,345.655 19.586 C 345.807 19.586,345.931 19.951,345.931 20.398 M251.438 20.759 C 251.174 21.991,251.046 22.146,250.600 21.776 C 250.276 21.507,250.313 21.332,250.832 20.675 C 251.622 19.672,251.669 19.678,251.438 20.759 M316.414 20.245 C 316.414 20.456,316.170 20.922,315.871 21.280 L 315.329 21.931 315.320 21.057 C 315.311 20.279,315.558 19.952,316.207 19.884 C 316.321 19.872,316.414 20.035,316.414 20.245 M314.600 22.119 C 313.966 23.357,312.572 25.103,312.217 25.103 C 311.795 25.103,312.202 22.928,312.801 21.981 C 314.145 19.860,315.695 19.978,314.600 22.119 M344.828 20.952 C 344.828 21.607,344.584 21.934,343.586 22.621 L 342.345 23.475 342.345 22.634 C 342.345 22.171,342.314 21.705,342.276 21.597 C 342.185 21.338,343.977 20.138,344.455 20.138 C 344.684 20.138,344.828 20.452,344.828 20.952 M317.749 22.211 C 316.796 23.732,316.129 24.566,316.141 24.223 C 316.193 22.738,317.557 20.414,318.378 20.414 C 318.795 20.414,318.692 20.709,317.749 22.211 M290.384 22.138 C 290.084 24.626,289.682 25.745,289.225 25.365 C 289.008 25.186,288.590 25.101,288.295 25.178 C 287.985 25.259,287.698 25.157,287.613 24.935 C 287.532 24.724,287.213 24.552,286.905 24.552 C 286.597 24.552,286.345 24.443,286.345 24.310 C 286.345 24.178,286.273 23.709,286.185 23.270 C 286.017 22.431,287.119 21.544,289.056 20.960 C 290.514 20.519,290.573 20.572,290.384 22.138 M319.724 21.667 C 319.724 22.584,317.427 25.657,317.035 25.265 C 316.925 25.155,319.479 20.690,319.652 20.690 C 319.692 20.690,319.724 21.129,319.724 21.667 M298.565 23.071 C 297.766 24.747,297.482 25.092,296.897 25.099 C 296.317 25.106,296.499 24.676,297.826 22.911 C 299.368 20.860,299.595 20.909,298.565 23.071 M327.172 21.622 C 327.172 21.680,326.707 22.078,326.138 22.507 C 325.433 23.038,325.231 23.115,325.504 22.747 C 326.172 21.846,327.172 21.171,327.172 21.622 M192.966 22.345 C 193.240 22.648,193.341 22.897,193.189 22.897 C 193.037 22.897,192.688 22.648,192.414 22.345 C 192.139 22.041,192.039 21.793,192.190 21.793 C 192.342 21.793,192.691 22.041,192.966 22.345 M339.478 23.057 C 339.386 23.297,339.310 23.545,339.310 23.609 C 339.310 23.672,339.198 23.724,339.060 23.724 C 338.923 23.724,338.875 23.476,338.955 23.172 C 339.034 22.869,339.222 22.621,339.372 22.621 C 339.522 22.621,339.570 22.817,339.478 23.057 M314.927 24.854 C 313.991 27.336,313.602 28.138,313.335 28.138 C 312.849 28.138,313.133 26.425,313.793 25.379 C 314.172 24.778,314.483 24.201,314.483 24.096 C 314.483 23.839,315.373 22.868,315.496 22.990 C 315.550 23.044,315.294 23.883,314.927 24.854 M345.361 24.372 C 345.186 25.069,344.888 25.766,344.700 25.923 C 344.494 26.093,344.587 25.552,344.931 24.569 C 345.601 22.657,345.818 22.557,345.361 24.372 M284.966 24.940 C 284.966 26.269,284.908 26.416,284.442 26.294 C 284.154 26.219,283.639 26.307,283.297 26.490 C 282.753 26.781,282.698 26.764,282.855 26.354 C 282.954 26.097,283.034 25.776,283.034 25.642 C 283.034 25.397,284.652 23.448,284.856 23.448 C 284.916 23.448,284.966 24.119,284.966 24.940 M310.345 23.704 C 310.345 24.039,309.552 24.828,309.215 24.828 C 309.071 24.828,309.156 24.517,309.405 24.138 C 309.857 23.448,310.345 23.223,310.345 23.704 M344.406 24.069 C 343.838 25.990,341.793 27.705,341.793 26.260 C 341.793 25.607,342.265 24.998,343.433 24.144 C 344.593 23.295,344.635 23.292,344.406 24.069 M352.346 24.145 C 352.362 24.293,352.167 24.454,351.912 24.503 C 351.585 24.566,351.500 24.462,351.621 24.146 C 351.800 23.681,352.296 23.680,352.346 24.145 M332.066 25.392 C 331.881 25.689,331.570 25.931,331.376 25.931 C 331.114 25.931,331.139 25.753,331.472 25.244 C 331.995 24.445,332.568 24.588,332.066 25.392 M338.917 26.221 C 338.510 27.160,338.504 27.162,338.494 26.410 C 338.488 25.991,338.638 25.397,338.828 25.090 C 339.346 24.253,339.411 25.082,338.917 26.221 M266.967 25.172 C 266.905 25.362,266.437 25.558,265.927 25.608 C 265.110 25.687,265.043 25.646,265.362 25.263 C 265.795 24.740,267.134 24.665,266.967 25.172 M307.882 25.217 C 307.497 25.681,304.247 27.650,304.104 27.506 C 303.972 27.374,307.635 24.828,307.957 24.828 C 308.094 24.828,308.060 25.003,307.882 25.217 M349.517 25.042 C 349.517 25.690,348.589 26.483,347.830 26.483 C 346.853 26.483,346.983 26.123,348.237 25.358 C 349.170 24.789,349.517 24.703,349.517 25.042 M297.379 25.760 C 297.379 25.969,296.821 26.598,296.138 27.158 C 294.737 28.306,294.676 28.272,295.443 26.769 C 296.047 25.586,297.379 24.891,297.379 25.760 M326.726 26.483 C 326.183 27.304,325.811 27.586,325.274 27.585 C 324.582 27.585,324.604 27.538,325.793 26.494 C 327.378 25.101,327.643 25.098,326.726 26.483 M279.585 27.711 C 278.202 29.330,277.632 29.646,277.946 28.621 C 278.273 27.551,278.501 27.279,279.611 26.642 C 281.098 25.788,281.094 25.945,279.585 27.711 M288.140 27.604 C 288.365 29.240,288.425 29.139,287.085 29.389 L 286.031 29.586 286.226 28.517 C 286.693 25.961,287.839 25.414,288.140 27.604 M260.690 27.833 C 260.690 28.268,259.913 28.393,259.756 27.983 C 259.655 27.721,259.788 27.586,260.147 27.586 C 260.445 27.586,260.690 27.697,260.690 27.833 M272.002 28.400 C 270.889 29.323,270.779 29.312,271.158 28.314 C 271.366 27.766,271.623 27.588,272.200 27.594 L 272.966 27.601 272.002 28.400 M195.542 30.580 C 195.491 31.211,195.236 31.766,194.859 32.069 C 193.975 32.779,193.958 32.707,194.585 30.918 C 195.207 29.142,195.672 28.978,195.542 30.580 M260.966 29.802 C 260.966 30.157,260.180 30.478,259.927 30.226 C 259.824 30.123,259.923 29.923,260.146 29.782 C 260.680 29.445,260.966 29.451,260.966 29.802 M183.704 31.330 C 184.044 31.653,184.035 31.728,183.635 31.881 C 182.976 32.135,182.446 31.864,182.268 31.184 C 182.095 30.523,182.946 30.609,183.704 31.330 M184.470 34.555 C 183.744 36.302,183.656 36.101,184.200 33.940 C 184.524 32.656,184.697 32.317,184.832 32.703 C 184.940 33.009,184.786 33.794,184.470 34.555 M175.922 37.640 C 175.783 38.985,173.689 43.299,173.343 42.953 C 173.048 42.657,175.534 36.138,175.942 36.138 C 176.016 36.138,176.007 36.814,175.922 37.640 M150.602 37.904 C 151.694 39.039,151.598 39.407,150.375 38.774 C 149.661 38.405,148.690 37.127,148.690 36.556 C 148.690 36.243,149.666 36.932,150.602 37.904 M135.821 39.793 C 135.917 40.590,135.979 42.110,135.959 43.172 L 135.923 45.103 135.704 42.622 C 135.583 41.258,135.409 39.737,135.316 39.243 C 135.223 38.749,135.260 38.345,135.397 38.345 C 135.535 38.345,135.726 38.997,135.821 39.793 M171.578 40.000 C 171.579 40.531,171.282 41.897,170.919 43.034 C 170.556 44.172,170.171 45.693,170.064 46.414 C 169.840 47.914,169.792 47.948,169.088 47.103 C 168.414 46.296,168.424 45.438,169.132 43.144 C 170.517 38.661,171.576 37.299,171.578 40.000 M163.152 40.373 C 162.523 41.498,161.931 41.849,161.931 41.097 C 161.931 40.786,163.620 38.839,163.765 38.983 C 163.823 39.041,163.547 39.667,163.152 40.373 M178.747 43.709 C 178.113 46.109,177.385 47.341,177.374 46.034 C 177.368 45.379,179.080 41.057,179.270 41.247 C 179.325 41.302,179.090 42.410,178.747 43.709 M175.872 44.085 C 175.069 45.627,175.014 45.427,175.634 43.219 C 176.025 41.826,176.130 41.667,176.321 42.182 C 176.482 42.619,176.355 43.157,175.872 44.085 M161.764 42.644 C 161.867 42.912,161.805 43.039,161.604 42.971 C 161.191 42.834,160.964 42.207,161.327 42.207 C 161.475 42.207,161.672 42.403,161.764 42.644 M175.011 42.857 C 174.916 43.106,174.722 43.310,174.581 43.310 C 174.441 43.310,174.464 43.052,174.633 42.735 C 174.985 42.079,175.274 42.172,175.011 42.857 M122.604 51.967 C 122.398 52.788,121.931 52.944,121.931 52.193 C 121.931 51.710,122.483 50.942,122.685 51.144 C 122.740 51.200,122.704 51.570,122.604 51.967 M83.551 57.946 C 84.327 59.361,84.399 59.624,83.985 59.544 C 83.473 59.445,81.383 55.919,81.394 55.172 C 81.402 54.581,82.427 55.899,83.551 57.946 M64.789 55.705 C 65.704 56.171,67.862 58.408,67.862 58.890 C 67.862 59.274,66.132 58.011,64.770 56.631 C 63.201 55.043,63.204 54.896,64.789 55.705 M80.600 58.154 C 81.827 59.484,81.831 59.724,80.619 59.395 C 79.924 59.206,76.966 55.873,76.966 55.279 C 76.966 54.973,79.560 57.025,80.600 58.154 M111.887 58.103 C 111.807 58.312,111.535 58.483,111.283 58.483 C 110.759 58.483,110.849 57.318,111.486 55.862 L 111.848 55.034 111.941 56.379 C 111.991 57.118,111.967 57.894,111.887 58.103 M87.736 57.716 C 88.747 59.673,88.749 59.862,87.754 59.862 C 86.796 59.862,86.638 59.530,86.444 57.107 C 86.281 55.077,86.399 55.132,87.736 57.716 M109.510 58.671 C 109.514 58.850,109.126 59.275,108.649 59.615 L 107.780 60.234 107.979 58.471 C 108.089 57.502,108.256 56.585,108.349 56.433 C 108.519 56.159,109.496 58.044,109.510 58.671 M213.379 56.672 C 231.322 58.597,245.380 71.318,249.132 89.023 C 249.610 91.279,249.712 92.815,249.749 98.345 L 249.793 104.966 245.310 105.041 L 240.828 105.117 240.821 100.903 C 240.814 96.173,240.419 90.293,240.020 88.996 C 238.341 83.534,237.257 81.133,235.105 78.105 C 219.086 55.569,185.081 62.569,178.990 89.655 C 178.548 91.620,178.090 100.367,178.198 104.765 C 178.205 105.039,177.216 105.100,173.724 105.041 L 169.241 104.966 169.262 98.850 C 169.298 88.242,171.032 82.067,176.143 74.345 C 178.959 70.090,185.029 64.113,187.862 62.807 C 188.090 62.702,188.710 62.350,189.241 62.025 C 193.911 59.169,199.088 57.462,205.379 56.705 C 209.363 56.226,209.233 56.227,213.379 56.672 M69.517 58.483 C 70.019 58.875,70.087 59.024,69.767 59.028 C 69.525 59.032,69.102 58.786,68.828 58.483 C 68.190 57.779,68.617 57.779,69.517 58.483 M348.554 114.492 C 354.923 157.511,355.215 159.802,354.448 160.730 C 354.304 160.904,353.966 161.500,353.696 162.055 L 353.206 163.064 349.751 159.670 C 345.315 155.313,340.857 149.226,340.118 146.519 C 339.740 145.132,339.368 144.488,338.355 143.459 L 337.072 142.156 338.084 139.009 C 338.641 137.278,339.659 134.516,340.346 132.870 L 341.596 129.878 340.276 126.801 C 339.551 125.109,337.837 121.450,336.467 118.670 C 333.487 112.620,333.505 112.869,335.785 109.379 C 336.775 107.862,338.179 105.593,338.904 104.337 L 340.222 102.053 339.639 99.371 C 339.318 97.896,338.973 96.007,338.872 95.173 C 338.711 93.848,338.344 93.146,335.965 89.616 C 332.540 84.536,332.537 84.507,335.059 81.487 C 336.967 79.201,338.852 76.206,340.715 72.501 C 341.327 71.284,341.876 70.336,341.934 70.394 C 341.993 70.453,344.972 90.297,348.554 114.492 M31.219 78.862 C 30.590 79.260,32.354 79.448,36.724 79.448 C 40.188 79.448,40.828 79.384,40.828 79.034 C 40.828 78.568,31.935 78.408,31.219 78.862 M54.687 104.138 C 52.988 107.557,45.486 119.172,44.978 119.172 C 44.691 119.172,43.611 117.738,42.642 116.072 L 41.882 114.764 43.984 112.485 C 45.641 110.690,46.055 110.077,45.937 109.593 C 45.720 108.710,47.963 106.306,51.560 103.568 L 54.483 101.342 54.791 102.326 C 55.037 103.113,55.016 103.476,54.687 104.138 M56.234 107.005 C 56.860 109.094,59.775 114.403,62.763 118.897 C 64.428 121.400,65.822 123.510,65.860 123.586 C 66.189 124.243,63.425 124.689,62.637 124.106 L 61.793 123.482 58.754 124.403 C 55.351 125.434,55.562 125.451,55.315 124.125 C 55.138 123.180,55.173 123.129,56.325 122.608 C 58.092 121.809,58.104 120.759,56.381 117.357 C 55.660 115.933,55.027 114.812,54.975 114.865 C 54.922 114.917,55.446 116.125,56.140 117.549 C 57.674 120.696,57.699 121.576,56.276 122.247 L 55.310 122.702 55.118 119.903 C 55.013 118.363,54.799 116.607,54.642 116.000 C 54.248 114.470,54.252 113.652,54.651 114.207 C 54.905 114.560,54.927 114.553,54.800 114.155 C 53.939 111.459,53.950 111.056,54.973 107.793 C 55.649 105.636,55.797 105.544,56.234 107.005 M53.224 109.571 C 52.807 110.835,52.414 110.936,52.414 109.779 C 52.414 108.557,53.321 106.892,53.467 107.847 C 53.523 108.218,53.414 108.994,53.224 109.571 M165.517 112.690 L 165.517 116.690 160.138 116.690 L 154.759 116.690 154.759 112.690 L 154.759 108.690 160.138 108.690 L 165.517 108.690 165.517 112.690 M249.931 112.691 L 249.931 116.691 209.586 116.622 L 169.241 116.552 169.165 112.621 L 169.088 108.690 209.510 108.690 L 249.931 108.690 249.931 112.691 M263.663 112.621 L 263.586 116.552 258.552 116.627 L 253.517 116.702 253.517 112.696 L 253.517 108.690 258.628 108.690 L 263.739 108.690 263.663 112.621 M51.661 112.541 C 51.255 113.230,50.709 114.228,50.447 114.759 C 49.508 116.662,44.951 121.072,45.563 119.486 C 46.279 117.629,52.020 109.879,52.195 110.534 C 52.348 111.105,52.218 111.595,51.661 112.541 M53.466 111.567 C 53.226 112.688,53.129 112.835,52.899 112.424 C 52.698 112.065,52.749 111.662,53.081 110.964 C 53.687 109.694,53.820 109.903,53.466 111.567 M52.687 113.327 C 52.683 114.485,51.363 117.128,50.980 116.745 C 50.447 116.213,50.641 114.955,51.463 113.604 C 52.305 112.221,52.691 112.134,52.687 113.327 M54.876 120.414 C 54.881 122.090,54.468 121.106,53.809 117.872 C 53.221 114.985,53.097 113.340,53.441 112.996 C 53.686 112.751,54.872 118.882,54.876 120.414 M53.223 116.621 C 53.396 117.645,53.787 119.463,54.091 120.662 L 54.646 122.840 53.892 123.627 C 52.896 124.667,52.806 124.637,52.309 123.103 C 51.243 119.818,51.170 118.150,52.016 116.379 C 52.959 114.406,52.846 114.384,53.223 116.621 M50.433 117.583 C 50.384 117.923,50.128 118.243,49.862 118.293 C 49.309 118.399,49.216 117.791,49.710 117.297 C 50.224 116.783,50.530 116.904,50.433 117.583 M274.069 161.587 L 274.069 202.760 225.753 202.828 C 171.803 202.905,176.276 202.734,176.276 204.717 C 176.276 206.463,172.674 206.345,225.700 206.345 C 256.332 206.345,273.958 206.442,274.063 206.611 C 274.707 207.652,272.397 212.784,270.374 214.807 C 267.153 218.028,266.312 218.200,253.724 218.204 C 248.148 218.205,243.586 218.259,243.586 218.322 C 243.586 218.385,245.107 219.933,246.966 221.760 L 250.345 225.083 250.426 236.113 C 250.503 246.626,250.531 247.150,251.025 247.307 C 255.020 248.575,254.400 255.419,250.176 256.673 C 244.687 258.303,241.180 250.274,246.200 247.570 L 247.172 247.047 247.172 236.692 L 247.172 226.338 243.100 222.272 L 239.028 218.207 234.548 218.207 C 232.085 218.207,230.069 218.299,230.069 218.411 C 230.069 218.523,232.148 220.697,234.690 223.241 L 239.310 227.867 239.448 229.718 C 239.583 231.527,239.612 231.586,240.735 232.338 C 244.901 235.130,242.915 241.556,237.905 241.498 C 232.732 241.438,231.060 235.049,235.469 232.194 C 237.029 231.184,236.844 229.785,234.895 227.861 L 233.377 226.361 230.206 229.545 L 227.034 232.728 227.034 237.733 C 227.034 243.155,226.989 243.310,225.413 243.310 C 224.186 243.310,224.000 242.455,224.000 236.807 L 224.000 231.531 227.629 227.882 L 231.258 224.233 228.250 221.215 L 225.242 218.198 218.133 218.271 L 211.023 218.345 211.020 231.862 C 211.017 244.183,211.058 245.404,211.476 245.655 C 215.693 248.186,215.271 253.982,210.784 255.171 C 206.528 256.298,202.966 251.920,204.959 248.012 C 205.476 247.000,206.799 245.793,207.392 245.793 C 207.948 245.793,208.000 244.663,208.000 232.667 C 208.000 218.578,208.245 219.446,205.171 222.621 L 203.034 224.828 203.034 232.599 C 203.034 241.034,202.974 241.379,201.490 241.379 C 200.083 241.379,200.000 240.844,200.000 231.773 L 200.000 223.392 202.483 220.891 C 203.848 219.515,204.966 218.348,204.966 218.298 C 204.966 218.248,202.454 218.207,199.384 218.207 L 193.803 218.207 190.970 221.030 C 189.412 222.582,188.138 223.984,188.138 224.145 C 188.138 224.306,189.690 225.990,191.586 227.886 L 195.034 231.335 195.034 236.889 C 195.034 242.901,194.938 243.310,193.517 243.310 C 192.124 243.310,192.000 242.842,192.000 237.590 L 192.000 232.736 188.824 229.541 L 185.648 226.345 184.134 227.907 C 182.144 229.961,182.039 231.055,183.724 232.171 C 188.036 235.024,186.186 241.515,181.060 241.517 C 176.063 241.518,174.279 235.416,178.401 232.423 C 179.542 231.594,179.553 231.570,179.569 229.810 L 179.586 228.035 184.473 223.121 L 189.359 218.207 184.683 218.207 L 180.007 218.207 175.934 222.272 L 171.862 226.338 171.862 236.598 L 171.862 246.859 172.759 247.478 C 175.079 249.082,175.840 251.047,175.045 253.385 C 172.982 259.454,164.312 257.075,165.384 250.734 C 165.569 249.637,167.319 247.417,168.219 247.137 C 168.504 247.049,168.573 244.916,168.559 236.649 C 168.537 224.491,168.225 225.752,172.250 221.746 C 174.009 219.995,175.448 218.482,175.448 218.384 C 175.448 218.287,170.886 218.205,165.310 218.204 C 152.793 218.200,151.922 218.026,148.761 214.915 C 147.462 213.636,145.379 210.082,145.379 209.143 C 145.379 208.915,147.147 208.828,151.742 208.828 C 157.977 208.828,158.967 208.708,159.513 207.890 C 159.624 207.723,159.718 193.174,159.720 175.560 L 159.724 143.534 159.144 143.008 C 158.613 142.527,157.998 142.476,151.849 142.400 L 145.134 142.318 145.050 138.721 C 145.003 136.743,145.017 135.073,145.080 135.011 C 145.144 134.948,164.823 134.897,188.812 134.897 C 237.192 134.897,233.655 135.037,233.655 133.120 C 233.655 131.172,237.194 131.320,188.651 131.242 L 145.004 131.172 144.884 126.143 C 144.818 123.377,144.837 120.925,144.926 120.694 C 145.069 120.320,152.066 120.282,209.578 120.344 L 274.069 120.414 274.069 161.587 M50.889 122.745 C 51.372 123.677,51.438 124.249,51.034 124.000 C 50.878 123.903,50.759 124.135,50.759 124.535 C 50.759 125.392,50.567 125.417,49.768 124.666 C 49.110 124.048,49.237 122.642,49.995 122.162 C 50.466 121.862,50.416 121.829,50.889 122.745 M55.042 124.448 C 55.309 125.665,54.273 126.290,53.511 125.371 C 53.220 125.021,53.270 124.833,53.801 124.268 C 54.633 123.382,54.814 123.408,55.042 124.448 M28.162 129.571 C 29.438 130.711,30.809 131.812,31.208 132.018 C 32.260 132.562,32.433 133.254,31.669 133.859 C 29.910 135.253,25.210 138.203,20.138 141.096 C 17.028 142.870,13.509 144.878,12.318 145.559 C 11.128 146.240,10.082 146.726,9.995 146.639 C 9.820 146.464,9.757 146.540,13.817 142.069 C 15.402 140.324,16.910 138.400,17.168 137.793 C 17.426 137.186,17.924 135.956,18.274 135.060 C 18.984 133.241,19.148 133.109,21.103 132.782 L 22.483 132.552 22.641 130.759 C 22.778 129.207,23.246 127.239,23.643 126.545 C 23.861 126.163,25.793 127.456,28.162 129.571 M71.994 133.505 C 74.185 137.846,75.148 142.422,75.725 151.237 C 76.124 157.333,76.801 163.971,77.134 165.048 C 77.306 165.607,75.908 173.801,75.578 174.165 C 75.276 174.499,74.341 174.146,73.378 173.336 C 72.320 172.445,72.323 172.100,73.386 172.501 C 74.652 172.979,75.155 172.522,75.256 170.801 C 75.408 168.216,73.861 167.356,71.697 168.823 C 70.120 169.891,70.299 169.979,69.003 167.489 C 67.382 164.373,67.057 162.800,66.768 156.690 C 66.609 153.335,66.349 150.739,66.076 149.793 C 65.525 147.880,65.377 137.587,65.887 136.634 C 66.063 136.305,66.207 135.724,66.207 135.343 C 66.207 134.771,66.606 134.404,68.471 133.256 C 71.248 131.546,70.996 131.529,71.994 133.505 M156.194 150.380 C 156.246 153.194,156.174 154.869,155.998 154.936 C 155.845 154.995,151.748 155.010,146.894 154.969 L 138.069 154.897 137.992 150.771 C 137.950 148.502,137.977 146.484,138.053 146.288 C 138.161 146.006,140.074 145.931,147.151 145.931 L 156.112 145.931 156.194 150.380 M336.276 146.989 C 336.276 147.267,336.648 147.827,337.103 148.232 C 337.559 148.638,337.931 149.103,337.931 149.266 C 337.931 151.175,344.577 163.458,347.099 166.211 L 348.817 168.085 347.857 167.913 C 347.329 167.818,345.252 167.543,343.242 167.301 C 337.552 166.617,337.362 166.535,336.639 164.437 C 335.957 162.457,334.954 161.256,333.610 160.813 C 332.509 160.449,332.448 159.831,333.091 155.563 C 333.808 150.813,336.276 144.167,336.276 146.989 M207.465 153.666 C 198.224 155.007,194.554 167.136,201.372 173.807 L 203.034 175.435 203.034 183.261 C 203.034 193.008,202.285 192.001,209.539 191.996 C 216.917 191.990,216.276 192.864,216.276 182.806 L 216.276 175.231 217.875 173.597 C 224.596 166.728,220.934 155.191,211.550 153.669 C 209.616 153.355,209.610 153.355,207.465 153.666 M372.660 157.490 C 373.132 157.930,373.517 158.509,373.517 158.777 C 373.517 159.045,373.486 159.211,373.448 159.145 C 373.410 159.080,372.889 158.500,372.289 157.858 C 371.060 156.541,371.344 156.260,372.660 157.490 M156.276 163.034 L 156.276 167.448 147.103 167.448 L 137.931 167.448 137.931 163.034 L 137.931 158.621 147.103 158.621 L 156.276 158.621 156.276 163.034 M354.427 162.828 C 354.053 163.936,354.035 163.959,353.676 163.737 C 353.490 163.622,353.601 163.264,353.986 162.744 C 354.746 161.715,354.799 161.725,354.427 162.828 M334.345 167.382 C 334.724 167.458,336.028 168.222,337.241 169.080 C 342.851 173.043,348.867 175.327,353.379 175.205 L 355.724 175.142 356.779 176.224 C 357.695 177.164,357.874 177.564,358.138 179.271 C 358.513 181.693,358.539 181.669,356.448 180.820 C 353.438 179.597,349.363 178.739,345.741 178.565 L 342.379 178.404 341.525 179.202 C 340.940 179.750,340.489 180.606,340.090 181.931 C 339.417 184.162,338.705 185.688,337.732 186.986 L 337.044 187.903 336.511 187.331 C 335.925 186.701,335.570 186.614,335.310 187.034 C 334.891 187.714,334.687 187.134,334.510 184.759 C 334.406 183.355,334.026 179.538,333.666 176.276 C 332.543 166.097,332.582 166.794,333.155 167.034 C 333.430 167.149,333.966 167.306,334.345 167.382 M77.913 169.517 C 78.248 171.455,79.950 177.984,80.785 180.538 L 81.592 183.007 78.508 187.297 C 73.678 194.014,72.419 195.640,72.343 195.255 C 72.220 194.632,74.677 181.958,74.937 181.872 C 77.800 180.917,78.681 178.980,76.986 177.367 C 75.489 175.944,75.460 175.058,76.897 174.677 L 77.931 174.402 77.000 174.373 C 76.100 174.346,76.075 174.315,76.248 173.448 C 76.347 172.955,76.629 171.452,76.875 170.107 C 77.331 167.620,77.562 167.488,77.913 169.517 M74.861 169.877 C 75.515 172.155,74.261 172.761,71.955 171.282 C 70.351 170.252,70.342 170.194,71.655 169.310 C 73.481 168.080,74.392 168.242,74.861 169.877 M156.161 171.149 C 156.224 171.211,156.239 173.260,156.194 175.700 L 156.112 180.138 147.021 180.138 L 137.931 180.138 137.931 175.770 C 137.931 173.368,138.014 171.320,138.115 171.218 C 138.310 171.023,155.966 170.955,156.161 171.149 M74.781 174.529 C 75.607 174.694,75.762 175.020,75.335 175.694 C 74.904 176.374,72.000 173.876,72.000 172.825 C 72.000 172.719,72.445 173.023,72.988 173.500 C 73.532 173.977,74.338 174.440,74.781 174.529 M360.276 179.557 C 360.276 179.672,359.982 180.042,359.622 180.380 L 358.968 180.994 358.798 180.359 C 358.705 180.010,358.627 179.374,358.624 178.947 L 358.621 178.169 359.448 178.759 C 359.903 179.083,360.276 179.442,360.276 179.557 M360.936 181.954 C 361.206 182.658,361.131 182.890,360.690 182.720 C 360.462 182.633,360.276 182.327,360.276 182.039 C 360.276 181.406,360.704 181.350,360.936 181.954 M156.161 183.838 C 156.224 183.901,156.239 185.918,156.194 188.321 L 156.113 192.690 147.091 192.629 L 138.069 192.568 137.993 188.146 L 137.917 183.724 146.982 183.724 C 151.967 183.724,156.098 183.776,156.161 183.838 M156.194 200.587 C 156.246 203.401,156.174 205.076,155.998 205.143 C 155.845 205.201,151.748 205.216,146.894 205.176 L 138.069 205.103 137.992 200.978 C 137.950 198.708,137.977 196.691,138.053 196.495 C 138.161 196.213,140.074 196.138,147.151 196.138 L 156.112 196.138 156.194 200.587 M180.419 234.687 C 178.438 235.464,178.959 238.345,181.081 238.345 C 181.985 238.345,182.772 237.758,182.929 236.966 C 183.237 235.414,181.827 234.134,180.419 234.687 M236.885 235.039 C 235.438 236.176,236.145 238.356,237.953 238.336 C 239.159 238.323,239.834 237.680,239.834 236.546 C 239.834 234.830,238.207 233.999,236.885 235.039 M300.106 248.825 L 302.922 250.202 304.603 249.354 C 306.035 248.631,306.259 248.580,306.118 249.011 C 303.986 255.514,302.967 259.445,302.801 261.799 C 302.699 263.237,302.473 266.152,302.299 268.276 L 301.981 272.138 300.906 273.176 C 299.848 274.198,299.826 274.262,299.415 277.452 C 298.952 281.039,298.576 281.917,295.807 285.862 C 294.045 288.373,294.300 288.311,292.499 286.670 L 291.068 285.365 291.870 279.717 C 292.311 276.611,293.488 268.234,294.486 261.103 C 295.484 253.972,296.353 247.983,296.417 247.793 C 296.609 247.228,297.150 247.380,300.106 248.825 M208.178 248.952 C 206.311 250.682,208.585 253.414,210.583 251.842 C 211.960 250.759,211.124 248.276,209.382 248.276 C 209.122 248.276,208.580 248.580,208.178 248.952 M168.832 250.678 C 167.412 252.483,169.627 254.693,171.525 253.364 C 172.387 252.760,172.387 250.964,171.525 250.360 C 170.575 249.695,169.506 249.821,168.832 250.678 M247.500 250.494 C 246.739 251.203,246.714 252.507,247.448 253.241 C 248.183 253.976,249.487 253.951,250.196 253.189 C 251.860 251.403,249.287 248.829,247.500 250.494 M293.943 257.724 C 293.860 258.217,293.044 264.207,292.129 271.034 C 290.089 286.262,290.319 285.045,289.565 284.643 C 287.433 283.507,282.348 277.412,282.065 275.655 C 281.974 275.086,281.727 274.146,281.516 273.567 C 280.152 269.816,286.031 260.531,291.520 257.766 C 293.878 256.578,294.137 256.574,293.943 257.724 M57.103 283.836 C 57.103 284.788,57.037 284.897,56.536 284.766 C 56.143 284.663,56.026 284.480,56.154 284.171 C 56.255 283.925,56.401 283.507,56.477 283.241 C 56.726 282.375,57.103 282.733,57.103 283.836 M291.046 296.069 C 290.759 296.562,290.189 297.809,289.779 298.839 C 288.834 301.219,288.757 301.105,289.252 298.058 C 289.473 296.698,289.654 295.493,289.654 295.379 C 289.655 295.266,290.085 295.172,290.611 295.172 L 291.568 295.172 291.046 296.069 M288.416 308.598 C 288.303 309.520,288.089 310.082,287.808 310.189 C 287.444 310.329,287.402 310.189,287.546 309.316 C 287.640 308.744,287.874 307.221,288.066 305.931 L 288.414 303.586 288.502 305.379 C 288.550 306.366,288.512 307.814,288.416 308.598 M163.030 331.517 C 163.033 331.859,162.910 332.138,162.759 332.138 C 162.607 332.138,162.485 331.672,162.487 331.103 C 162.490 330.334,162.560 330.175,162.759 330.483 C 162.906 330.710,163.028 331.176,163.030 331.517 M162.368 338.276 C 162.855 338.842,162.894 339.266,162.810 343.128 L 162.718 347.360 161.980 347.181 C 161.574 347.083,160.592 346.575,159.797 346.053 C 159.003 345.531,158.161 345.103,157.927 345.103 C 157.348 345.103,157.165 344.519,157.490 343.706 C 157.682 343.226,157.763 343.172,157.776 343.517 C 157.803 344.273,158.172 344.088,158.739 343.034 C 159.314 341.968,159.634 341.819,159.779 342.552 C 159.867 342.995,160.260 341.874,161.084 338.828 C 161.447 337.487,161.625 337.411,162.368 338.276 M165.397 341.388 C 166.067 342.528,166.586 343.854,167.293 346.235 L 167.694 347.586 165.709 347.582 C 162.819 347.576,162.931 347.775,163.167 343.045 L 163.370 338.994 164.056 339.635 C 164.433 339.987,165.037 340.776,165.397 341.388 M162.483 357.241 L 162.483 360.552 161.411 360.552 C 159.825 360.552,159.530 358.714,160.816 356.845 C 161.282 356.167,161.739 355.234,161.832 354.772 C 162.191 352.974,162.483 354.079,162.483 357.241 M152.345 386.616 C 153.279 387.438,153.498 390.487,152.647 390.813 C 151.774 391.148,151.172 389.931,151.172 387.832 C 151.172 385.730,151.249 385.651,152.345 386.616 " stroke="none" fill="#fbfbfb" fill-rule="evenodd"></path><path id="path1" d="M234.823 5.517 C 234.823 6.048,234.879 6.266,234.949 6.000 C 235.018 5.734,235.018 5.300,234.949 5.034 C 234.879 4.769,234.823 4.986,234.823 5.517 M320.616 19.862 C 320.616 20.393,320.672 20.610,320.742 20.345 C 320.811 20.079,320.811 19.645,320.742 19.379 C 320.672 19.114,320.616 19.331,320.616 19.862 M35.931 78.542 C 36.348 78.606,37.031 78.606,37.448 78.542 C 37.866 78.479,37.524 78.427,36.690 78.427 C 35.855 78.427,35.514 78.479,35.931 78.542 M36.487 79.646 C 36.906 79.710,37.527 79.708,37.866 79.642 C 38.205 79.577,37.862 79.525,37.103 79.527 C 36.345 79.529,36.067 79.583,36.487 79.646 M65.748 141.793 C 65.748 142.931,65.797 143.397,65.856 142.828 C 65.916 142.259,65.916 141.328,65.856 140.759 C 65.797 140.190,65.748 140.655,65.748 141.793 M384.616 201.931 C 384.616 202.462,384.672 202.679,384.742 202.414 C 384.811 202.148,384.811 201.714,384.742 201.448 C 384.672 201.183,384.616 201.400,384.616 201.931 M112.345 256.138 C 112.348 256.745,112.405 256.961,112.471 256.617 C 112.537 256.274,112.534 255.778,112.465 255.514 C 112.396 255.250,112.342 255.531,112.345 256.138 M127.518 268.552 C 127.521 269.159,127.577 269.374,127.643 269.031 C 127.709 268.688,127.707 268.192,127.638 267.928 C 127.569 267.664,127.515 267.945,127.518 268.552 M163.945 292.138 C 163.945 292.972,163.996 293.314,164.060 292.897 C 164.123 292.479,164.123 291.797,164.060 291.379 C 163.996 290.962,163.945 291.303,163.945 292.138 M163.669 303.724 C 163.669 304.559,163.721 304.900,163.784 304.483 C 163.847 304.066,163.847 303.383,163.784 302.966 C 163.721 302.548,163.669 302.890,163.669 303.724 M163.945 310.069 C 163.945 310.903,163.996 311.245,164.060 310.828 C 164.123 310.410,164.123 309.728,164.060 309.310 C 163.996 308.893,163.945 309.234,163.945 310.069 M163.389 315.172 C 163.391 315.931,163.445 316.209,163.508 315.789 C 163.572 315.370,163.570 314.749,163.505 314.410 C 163.439 314.071,163.387 314.414,163.389 315.172 M231.531 315.586 C 231.531 316.421,231.583 316.762,231.646 316.345 C 231.709 315.928,231.709 315.245,231.646 314.828 C 231.583 314.410,231.531 314.752,231.531 315.586 M308.207 315.172 C 308.211 315.779,308.267 315.995,308.333 315.652 C 308.399 315.309,308.397 314.812,308.327 314.549 C 308.258 314.285,308.204 314.566,308.207 315.172 M230.685 317.517 C 230.685 318.048,230.741 318.266,230.811 318.000 C 230.880 317.734,230.880 317.300,230.811 317.034 C 230.741 316.769,230.685 316.986,230.685 317.517 M163.665 321.793 C 163.667 322.552,163.721 322.829,163.784 322.410 C 163.848 321.991,163.846 321.370,163.780 321.031 C 163.715 320.691,163.663 321.034,163.665 321.793 M163.113 344.690 C 163.115 345.448,163.169 345.726,163.232 345.307 C 163.296 344.887,163.294 344.267,163.229 343.927 C 163.163 343.588,163.111 343.931,163.113 344.690 M71.531 351.724 C 71.531 352.559,71.583 352.900,71.646 352.483 C 71.709 352.066,71.709 351.383,71.646 350.966 C 71.583 350.548,71.531 350.890,71.531 351.724 M171.675 407.172 C 171.675 408.159,171.725 408.562,171.786 408.069 C 171.847 407.576,171.847 406.769,171.786 406.276 C 171.725 405.783,171.675 406.186,171.675 407.172 " stroke="none" fill="#a1a1a1" fill-rule="evenodd"></path><path id="path2" d="M235.110 8.276 C 235.110 8.959,235.163 9.238,235.229 8.897 C 235.295 8.555,235.295 7.997,235.229 7.655 C 235.163 7.314,235.110 7.593,235.110 8.276 M152.229 37.415 C 152.385 37.699,152.904 38.366,153.381 38.897 L 154.249 39.862 153.337 38.529 C 152.413 37.178,151.708 36.469,152.229 37.415 M135.807 43.034 C 135.807 43.869,135.859 44.210,135.922 43.793 C 135.985 43.376,135.985 42.693,135.922 42.276 C 135.859 41.859,135.807 42.200,135.807 43.034 M122.262 51.641 C 121.873 52.031,121.829 52.414,122.175 52.414 C 122.309 52.414,122.483 52.166,122.563 51.862 C 122.731 51.218,122.705 51.199,122.262 51.641 M111.788 57.379 C 111.788 57.910,111.845 58.128,111.914 57.862 C 111.984 57.597,111.984 57.162,111.914 56.897 C 111.845 56.631,111.788 56.848,111.788 57.379 M66.838 156.552 C 66.840 157.310,66.893 157.588,66.957 157.169 C 67.020 156.749,67.018 156.129,66.953 155.789 C 66.887 155.450,66.835 155.793,66.838 156.552 M371.915 157.338 C 372.172 157.533,372.647 157.995,372.971 158.364 C 373.294 158.733,373.469 158.848,373.359 158.621 C 373.037 157.954,372.067 156.965,371.745 156.974 C 371.582 156.979,371.658 157.143,371.915 157.338 M162.651 331.172 C 162.878 332.187,163.036 332.407,163.030 331.701 C 163.028 331.410,162.900 330.986,162.746 330.759 C 162.542 330.456,162.516 330.568,162.651 331.172 M165.590 347.508 C 166.009 347.572,166.630 347.570,166.969 347.505 C 167.309 347.439,166.966 347.387,166.207 347.389 C 165.448 347.391,165.171 347.445,165.590 347.508 M162.290 358.345 C 162.290 359.179,162.341 359.521,162.404 359.103 C 162.468 358.686,162.468 358.003,162.404 357.586 C 162.341 357.169,162.290 357.510,162.290 358.345 " stroke="none" fill="#666666" fill-rule="evenodd"></path><path id="path3" d="M318.492 23.714 C 318.061 24.164,317.572 24.455,317.406 24.360 C 317.240 24.265,317.195 24.289,317.308 24.413 C 317.420 24.537,317.374 24.805,317.205 25.009 C 316.539 25.812,317.191 25.314,318.345 24.138 C 319.015 23.455,319.498 22.897,319.419 22.897 C 319.340 22.897,318.923 23.265,318.492 23.714 M40.984 76.432 C 41.721 77.181,42.385 77.793,42.459 77.793 C 42.534 77.793,42.104 77.291,41.504 76.676 C 40.905 76.062,40.476 75.484,40.552 75.392 C 40.628 75.300,40.454 75.190,40.167 75.148 C 39.801 75.095,40.047 75.481,40.984 76.432 M288.818 334.276 L 287.310 335.862 288.897 334.354 C 290.370 332.953,290.609 332.690,290.404 332.690 C 290.361 332.690,289.647 333.403,288.818 334.276 M168.264 400.621 C 169.407 401.839,169.655 402.058,169.655 401.851 C 169.655 401.806,169.066 401.217,168.345 400.540 L 167.034 399.310 168.264 400.621 M179.034 425.793 C 179.549 426.324,180.032 426.759,180.108 426.759 C 180.184 426.759,179.825 426.324,179.310 425.793 C 178.796 425.262,178.312 424.828,178.237 424.828 C 178.161 424.828,178.520 425.262,179.034 425.793 " stroke="none" fill="#bcbcbc" fill-rule="evenodd"></path><path id="path4" d="M347.541 166.986 C 347.872 167.339,348.049 167.731,347.934 167.858 C 347.818 167.985,347.889 167.993,348.090 167.877 C 348.425 167.684,347.539 166.345,347.076 166.345 C 347.000 166.345,347.209 166.633,347.541 166.986 M97.379 312.690 C 97.894 313.221,98.377 313.655,98.453 313.655 C 98.529 313.655,98.170 313.221,97.655 312.690 C 97.140 312.159,96.657 311.724,96.581 311.724 C 96.506 311.724,96.865 312.159,97.379 312.690 M71.724 313.241 C 72.239 313.772,72.722 314.207,72.798 314.207 C 72.874 314.207,72.515 313.772,72.000 313.241 C 71.485 312.710,71.002 312.276,70.926 312.276 C 70.850 312.276,71.209 312.710,71.724 313.241 M170.483 402.897 C 170.997 403.428,171.481 403.862,171.557 403.862 C 171.632 403.862,171.273 403.428,170.759 402.897 C 170.244 402.366,169.761 401.931,169.685 401.931 C 169.609 401.931,169.968 402.366,170.483 402.897 " stroke="none" fill="#848484" fill-rule="evenodd"></path></g></svg>